<svg xmlns="http://www.w3.org/2000/svg" viewBox="0 0 488.8 136"><defs><style>.a{fill:#32a6ce}.b{fill:#1a80ad}.c{fill:#21789e}.d{fill:#1a5b80}</style></defs><path class="a" d="M381.6 24c-12 0-21.6 3.2-29.6 4.8l-2.4 18.4a104.79 104.79 0 0124.8-5.6c9.6 0 15.2 1.6 13.6 10.4-28.8 0-48 5.6-52 24.8-5.6 32 29.6 32.8 43.2 18.4l-1.6 8.8h25.6l11.2-52c4-21.6-15.2-28.8-32.8-28zm1.6 53.6c-1.6 6.4-7.2 8.8-13.6 9.6-5.6 0-10.4-3.2-7.2-9.6 3.2-4.8 10.4-4.8 16-4.8h6.4c-.8-.8-1.6 2.4-1.6 4.8z"/><path class="b" d="M349.6 47.2a104.79 104.79 0 0124.8-5.6c9.6 0 15.2 1.6 13.6 10.4-28.8 0-48 5.6-52 24.8-5.6 32 29.6 32.8 43.2 18.4l-1.6 8.8h25.6l11.2-52c4.8-21.6-15.2-27.2-32.8-27.2m1.6 52.8c-1.6 6.4-7.2 8.8-13.6 9.6-5.6 0-10.4-3.2-7.2-9.6 3.2-4.8 10.4-4.8 16-4.8h6.4c-.8-.8-1.6 2.4-1.6 4.8z"/><path class="a" d="M436 0l-20.8 104h25.6L462.4 0H436z"/><path class="b" d="M454.4 0l-39.2 104h25.6L462.4 0H436h18.4z"/><path class="a" d="M316.8 0h-47.2l-20.8 104h28l7.2-32h20c19.2 0 35.2-11.2 39.2-31.2 4-23.2-12.8-40.8-26.4-40.8zm-.8 36c-1.6 7.2-8.8 12-16 12h-12.8l5.6-24h13.6c7.2 0 11.2 4.8 9.6 12z"/><path class="b" d="M316.8 0h-32L248 104h28l7.2-32h20c19.2 0 35.2-11.2 39.2-31.2 4.8-23.2-12-40.8-25.6-40.8zm-.8 36c-1.6 7.2-8.8 12-16 12h-12.8l5.6-24h13.6c7.2 0 11.2 4.8 9.6 12z"/><path class="c" d="M132 24c-12 0-21.6 3.2-28.8 4.8l-2.4 18.4c3.2-1.6 15.2-4.8 24.8-5.6 9.6 0 15.2 1.6 13.6 10.4-28 0-47.2 5.6-51.2 24.8-5.6 32 28.8 32.8 42.4 18.4l-1.6 8.8h25.6l11.2-52c4-21.6-16-28.8-33.6-28zm2.4 53.6c-1.6 6.4-7.2 8.8-13.6 9.6-5.6 0-10.4-3.2-6.4-9.6 3.2-4.8 10.4-4.8 15.2-4.8h6.4c-.8-.8-1.6 2.4-1.6 4.8z"/><path class="d" d="M101.6 47.2c3.2-1.6 15.2-4.8 24.8-5.6 9.6 0 15.2 1.6 13.6 10.4-28 0-47.2 5.6-51.2 24.8-5.6 32 28.8 32.8 42.4 18.4l-2.4 8.8h25.6l11.2-52c4.8-21.6-15.2-27.2-32.8-27.2m1.6 52.8c-1.6 6.4-7.2 8.8-13.6 9.6-5.6 0-10.4-3.2-6.4-9.6 3.2-4.8 10.4-4.8 15.2-4.8h6.4c-.8-.8-1.6 2.4-1.6 4.8z"/><path class="c" d="M176 24h25.6l4 44.8L231.2 24h26.4l-60.8 112H168l18.4-33.6L176 24z"/><path class="d" d="M201.6 25.6l4 44L231.2 24h26.4l-60.8 112H168l18.4-32.8"/><path class="c" d="M68.8 0h-48L0 104h28l7.2-32h20c19.2 0 35.2-11.2 39.2-31.2C99.2 17.6 82.4 0 68.8 0zM68 36c-1.6 7.2-8.8 12-16 12H39.2l5.6-24h13.6c7.2 0 11.2 4.8 9.6 12z"/><path class="d" d="M68.8 0H47.2L0 104h28l7.2-32h20c19.2 0 35.2-11.2 39.2-31.2C99.2 17.6 82.4 0 68.8 0zM68 36c-1.6 7.2-8.8 12-16 12H39.2l5.6-24h13.6c7.2 0 11.2 4.8 9.6 12z"/><path d="M127.2 52c-21.6 1.6-36 8-39.2 24-5.6 32 28.8 32.8 42.4 18.4l-1.6 9.6h25.6l4-19.2zm7.2 25.6c-1.6 6.4-7.2 8.8-13.6 9.6-5.6 0-10.4-3.2-6.4-9.6 3.2-4.8 10.4-4.8 15.2-4.8h6.4c-.8-.8-1.6 2.4-1.6 4.8zm72.8-9.6l-1.6 2.4 16.8 16L257.6 24h-26.4l-24 44zM28 104l7.2-32-32.8 32H28z" fill="#06435e"/><path d="M276 104l7.2-33.6v.8L250.4 104H276zm100-52c-21.6 1.6-36 8-39.2 24-5.6 32 29.6 32.8 43.2 18.4l-2.4 9.6h25.6l4-19.2zm7.2 25.6c-1.6 6.4-7.2 8.8-13.6 9.6-5.6 0-10.4-3.2-7.2-9.6 3.2-4.8 10.4-4.8 16-4.8h6.4c-.8-.8-1.6 2.4-1.6 4.8zm50.4-20.8L415.2 104h25.6l7.2-32-14.4-15.2z" fill="#2273aa"/><path class="a" d="M468 16.8V5.6h-4V4h10.4v1.6h-4v11.2zm8 0V4h2.4l3.2 8.8a2.79 2.79 0 00.8 1.6c0-.8 0-.8.8-2.4l3.2-8.8h2.4V16h-1.6V4.8l-4 11.2h-2.4l-4-11.2V16h-.8z"/></svg>